<?xml version="1.0" encoding="UTF-8" standalone="no"?>
<!DOCTYPE svg PUBLIC "-//W3C//DTD SVG 20010904//EN"
              "http://www.w3.org/TR/2001/REC-SVG-20010904/DTD/svg10.dtd">

<svg xmlns="http://www.w3.org/2000/svg"
     width="35.2734mm" height="35.2734mm"
     viewBox="0 0 100 100">
  <path id="Selection"
        fill="none" stroke="black" stroke-width="1"
        d="M 6.00,64.00
           C 6.41,56.64 10.51,50.49 13.75,44.00
             14.81,41.89 17.68,35.81 18.96,34.31
             22.17,30.58 23.62,33.81 28.30,26.98
             30.52,23.75 35.98,12.63 40.05,12.63
             46.38,12.63 50.12,26.73 54.30,30.19
             56.75,32.21 61.46,32.81 62.13,36.13
             62.64,38.68 59.30,43.75 58.00,46.00
             58.00,46.00 55.00,45.00 55.00,45.00
             54.59,46.36 54.33,47.62 53.56,48.85
             48.58,56.87 41.04,42.95 39.00,39.00
             36.52,40.92 32.40,46.07 29.21,45.26
             26.98,44.69 24.39,39.92 23.00,38.00
             23.00,38.00 15.25,54.00 15.25,54.00
             15.25,54.00 10.37,62.40 10.37,62.40
             10.37,62.40 6.00,64.00 6.00,64.00 Z
           M 71.17,14.97
           C 76.66,13.17 86.61,15.70 90.85,19.63
             93.81,22.37 95.50,27.38 90.85,29.40
             89.35,30.06 86.66,29.99 85.00,30.00
             81.80,30.02 69.33,30.35 67.15,29.40
             65.49,28.68 64.76,27.67 64.32,25.94
             62.92,20.43 67.14,17.54 71.17,14.97 Z
           M 41.00,19.00
           C 36.20,23.08 29.33,32.56 30.00,39.00
             31.65,37.65 35.38,33.77 37.02,33.34
             41.12,32.26 46.89,42.02 49.00,45.00
             53.53,40.07 53.37,40.21 60.00,41.00
             60.00,41.00 49.58,33.50 49.58,33.50
             49.58,33.50 41.00,19.00 41.00,19.00 Z
           M 78.00,24.00
           C 76.33,16.70 73.30,19.78 69.00,23.00
             69.00,23.00 69.00,25.00 69.00,25.00
             73.62,26.31 84.57,26.76 89.00,25.00
             89.00,25.00 85.00,21.00 85.00,21.00
             85.00,21.00 83.00,21.00 83.00,21.00
             83.00,21.00 78.00,24.00 78.00,24.00 Z
           M 32.00,88.00
           C 32.41,80.57 36.63,73.68 39.69,67.00
             40.64,64.93 42.00,61.05 43.65,59.60
             47.28,56.39 50.54,60.77 54.37,56.75
             57.24,53.73 61.34,41.74 65.20,40.74
             69.17,39.71 72.10,46.09 74.67,48.85
             78.19,52.65 79.77,51.32 82.68,53.59
             87.30,57.21 93.58,68.16 94.00,74.00
             85.10,73.00 84.04,68.26 79.00,67.11
             73.48,65.84 74.14,70.82 66.00,64.00
             64.51,68.04 60.05,77.83 54.96,77.58
             52.31,77.45 46.53,73.35 43.00,72.00
             42.07,75.27 38.28,85.23 35.61,86.98
             34.32,87.82 33.39,87.76 32.00,88.00 Z
           M 67.00,47.00
           C 67.00,47.00 54.79,64.94 54.79,64.94
             54.79,64.94 46.00,64.94 46.00,64.94
             49.20,68.77 51.40,70.24 56.00,72.00
             57.55,69.11 62.18,60.25 65.18,59.33
             67.58,58.60 69.54,60.78 72.00,61.16
             73.65,61.42 77.82,60.27 80.00,60.00
             80.00,60.00 80.00,58.00 80.00,58.00
             72.49,57.39 70.74,52.97 67.00,47.00 Z
           M 81.00,60.00
           C 81.00,60.00 80.00,60.00 80.00,60.00
             80.00,60.00 81.00,61.00 81.00,61.00
             81.00,61.00 81.00,60.00 81.00,60.00 Z" />
</svg>
